<mxfile host="65bd71144e">
    <diagram id="IPlb3M_E_COdG-401LOE" name="Page-1">
        <mxGraphModel dx="626" dy="390" grid="1" gridSize="10" guides="1" tooltips="1" connect="1" arrows="1" fold="1" page="1" pageScale="1" pageWidth="850" pageHeight="1100" math="0" shadow="0">
            <root>
                <mxCell id="0"/>
                <mxCell id="1" parent="0"/>
                <mxCell id="2" value="" style="rounded=0;whiteSpace=wrap;html=1;" vertex="1" parent="1">
                    <mxGeometry x="160" y="15" width="120" height="60" as="geometry"/>
                </mxCell>
                <mxCell id="3" value="app.jsx" style="text;html=1;align=center;verticalAlign=middle;resizable=0;points=[];autosize=1;strokeColor=none;fillColor=none;" vertex="1" parent="1">
                    <mxGeometry x="50" y="25" width="60" height="30" as="geometry"/>
                </mxCell>
                <mxCell id="4" value="" style="whiteSpace=wrap;html=1;" vertex="1" parent="1">
                    <mxGeometry x="430" y="15" width="120" height="60" as="geometry"/>
                </mxCell>
                <mxCell id="5" value="component" style="text;html=1;align=center;verticalAlign=middle;resizable=0;points=[];autosize=1;strokeColor=none;fillColor=none;" vertex="1" parent="1">
                    <mxGeometry x="450" y="75" width="80" height="30" as="geometry"/>
                </mxCell>
                <mxCell id="26" value="" style="group" vertex="1" connectable="0" parent="1">
                    <mxGeometry x="180" y="140" width="220" height="240" as="geometry"/>
                </mxCell>
                <mxCell id="6" value="" style="whiteSpace=wrap;html=1;" vertex="1" parent="26">
                    <mxGeometry y="30" width="220" height="210" as="geometry"/>
                </mxCell>
                <mxCell id="7" value="sign up page" style="text;html=1;align=center;verticalAlign=middle;resizable=0;points=[];autosize=1;strokeColor=none;fillColor=none;" vertex="1" parent="26">
                    <mxGeometry x="55" width="90" height="30" as="geometry"/>
                </mxCell>
                <mxCell id="9" value="sign_up" style="rounded=1;whiteSpace=wrap;html=1;arcSize=2;" vertex="1" parent="26">
                    <mxGeometry x="50" y="150" width="120" height="20" as="geometry"/>
                </mxCell>
                <mxCell id="10" value="mobile_no&amp;nbsp; or email" style="rounded=0;whiteSpace=wrap;html=1;" vertex="1" parent="26">
                    <mxGeometry x="20" y="40" width="180" height="20" as="geometry"/>
                </mxCell>
                <mxCell id="11" value="login" style="rounded=1;whiteSpace=wrap;html=1;" vertex="1" parent="26">
                    <mxGeometry x="130" y="180" width="50" height="20" as="geometry"/>
                </mxCell>
                <mxCell id="12" value="Full name" style="rounded=0;whiteSpace=wrap;html=1;" vertex="1" parent="26">
                    <mxGeometry x="30" y="60" width="160" height="20" as="geometry"/>
                </mxCell>
                <mxCell id="14" value="name,user,email" style="rounded=0;whiteSpace=wrap;html=1;" vertex="1" parent="26">
                    <mxGeometry x="30" y="80" width="160" height="20" as="geometry"/>
                </mxCell>
                <mxCell id="15" value="password" style="rounded=0;whiteSpace=wrap;html=1;" vertex="1" parent="26">
                    <mxGeometry x="30" y="100" width="160" height="20" as="geometry"/>
                </mxCell>
                <mxCell id="17" value="alerady have account," style="text;html=1;align=center;verticalAlign=middle;resizable=0;points=[];autosize=1;strokeColor=none;fillColor=none;" vertex="1" parent="26">
                    <mxGeometry y="175" width="140" height="30" as="geometry"/>
                </mxCell>
                <mxCell id="28" value="" style="whiteSpace=wrap;html=1;" vertex="1" parent="1">
                    <mxGeometry x="510" y="170" width="220" height="210" as="geometry"/>
                </mxCell>
                <mxCell id="29" value="login page" style="text;html=1;align=center;verticalAlign=middle;resizable=0;points=[];autosize=1;strokeColor=none;fillColor=none;" vertex="1" parent="1">
                    <mxGeometry x="570" y="140" width="80" height="30" as="geometry"/>
                </mxCell>
                <mxCell id="30" value="login" style="rounded=1;whiteSpace=wrap;html=1;arcSize=2;" vertex="1" parent="1">
                    <mxGeometry x="560" y="290" width="120" height="20" as="geometry"/>
                </mxCell>
                <mxCell id="32" value="signup" style="rounded=1;whiteSpace=wrap;html=1;" vertex="1" parent="1">
                    <mxGeometry x="650" y="320" width="50" height="20" as="geometry"/>
                </mxCell>
                <mxCell id="34" value="name,user,email" style="rounded=0;whiteSpace=wrap;html=1;" vertex="1" parent="1">
                    <mxGeometry x="540" y="220" width="160" height="20" as="geometry"/>
                </mxCell>
                <mxCell id="35" value="password" style="rounded=0;whiteSpace=wrap;html=1;" vertex="1" parent="1">
                    <mxGeometry x="540" y="240" width="160" height="20" as="geometry"/>
                </mxCell>
                <mxCell id="36" value="alerady have account?," style="text;html=1;align=center;verticalAlign=middle;resizable=0;points=[];autosize=1;strokeColor=none;fillColor=none;" vertex="1" parent="1">
                    <mxGeometry x="505" y="315" width="150" height="30" as="geometry"/>
                </mxCell>
                <mxCell id="37" value="" style="endArrow=classic;html=1;entryX=-0.001;entryY=0.568;entryDx=0;entryDy=0;entryPerimeter=0;exitX=1;exitY=0.5;exitDx=0;exitDy=0;" edge="1" parent="1" source="11" target="36">
                    <mxGeometry width="50" height="50" relative="1" as="geometry">
                        <mxPoint x="470" y="320" as="sourcePoint"/>
                        <mxPoint x="520" y="270" as="targetPoint"/>
                        <Array as="points"/>
                    </mxGeometry>
                </mxCell>
            </root>
        </mxGraphModel>
    </diagram>
</mxfile>